<svg id="Layer_1" height="512" viewBox="0 0 128 128" width="512" xmlns="http://www.w3.org/2000/svg" data-name="Layer 1"><path d="m103.327 111.379-21.204-36.919a32.479 32.479 0 1 0 -35.323-1.6l-22.127 38.519a1.75 1.75 0 0 0 2.443 2.356l10.873-6.769 3.279 6.111a1.75 1.75 0 0 0 1.517.923 1.777 1.777 0 0 0 1.543-.879l19.654-34.221h.037l19.653 34.219a1.752 1.752 0 0 0 1.518.881h.025a1.75 1.75 0 0 0 1.517-.923l3.279-6.111 10.873 6.769a1.75 1.75 0 0 0 2.443-2.356zm-66.614-64.906a28.973 28.973 0 1 1 28.972 28.971 29.005 29.005 0 0 1 -28.972-28.971zm6.149 62.173-2.671-4.979a1.751 1.751 0 0 0 -2.467-.658l-6.549 4.077 18.573-32.338a32.206 32.206 0 0 0 10.445 3.722zm47.414-5.637a1.751 1.751 0 0 0 -2.467.658l-2.671 4.979-17.112-29.795a32.237 32.237 0 0 0 10.987-2.779l17.812 31.014z"/><path d="m90.528 46.473a24.843 24.843 0 1 0 -24.843 24.842 24.871 24.871 0 0 0 24.843-24.842zm-46.185 0a21.343 21.343 0 1 1 21.342 21.342 21.366 21.366 0 0 1 -21.342-21.342z"/><path d="m71.805 58.692a1.749 1.749 0 0 0 2.539-1.844l-1.168-6.815 4.951-4.827a1.749 1.749 0 0 0 -.97-2.984l-6.843-.994-3.06-6.2a1.75 1.75 0 0 0 -3.138 0l-3.06 6.2-6.843.994a1.749 1.749 0 0 0 -.97 2.984l4.951 4.827-1.168 6.815a1.749 1.749 0 0 0 2.539 1.844l6.12-3.216zm-10.73-4.748.724-4.226a1.749 1.749 0 0 0 -.5-1.549l-3.07-2.993 4.243-.617a1.748 1.748 0 0 0 1.318-.957l1.9-3.846 1.9 3.846a1.75 1.75 0 0 0 1.318.957l4.243.617-3.07 2.993a1.749 1.749 0 0 0 -.5 1.549l.724 4.226-3.8-2a1.749 1.749 0 0 0 -1.628 0z"/></svg>